<?xml version="1.0" encoding="UTF-8"?>
<svg id="Layer_2" data-name="Layer 2" xmlns="http://www.w3.org/2000/svg" viewBox="0 0 45.22 45.24">
  <defs>
    <style>
      .cls-1 {
        fill: #beb8c8;
      }
    </style>
  </defs>
  <g id="Layer_1-2" data-name="Layer 1">
    <g id="g4146">
      <path id="path4148" class="cls-1" d="M20.35,45.15c-3.48-.33-7.01-1.58-10.04-3.56-2.54-1.66-3.11-2.34-3.11-3.7,0-2.73,3-7.51,8.13-12.96,2.92-3.09,6.98-6.72,7.42-6.62,.85,.19,7.68,6.85,10.24,9.98,4.04,4.96,5.9,9.02,4.96,10.82-.72,1.38-5.17,4.06-8.44,5.1-2.7,.85-6.24,1.21-9.15,.93h0ZM3.78,35.05C1.67,31.82,.6,28.63,.09,24.02c-.17-1.52-.11-2.39,.39-5.51,.62-3.89,2.83-8.39,5.5-11.17,1.13-1.18,1.24-1.21,2.62-.74,1.68,.57,3.47,1.8,6.25,4.32l1.62,1.47-.89,1.09c-4.11,5.05-8.45,12.22-10.09,16.65-.89,2.41-1.25,4.83-.87,5.83,.26,.68,.02,.43-.84-.9Zm37.02,.55c.21-1.02-.06-2.89-.67-4.77-1.34-4.08-5.81-11.67-9.91-16.83l-1.29-1.62,1.4-1.28c1.83-1.68,3.09-2.68,4.46-3.53,1.08-.67,2.62-1.27,3.28-1.27,.41,0,1.85,1.49,3.01,3.12,1.8,2.52,3.12,5.58,3.79,8.77,.43,2.06,.47,6.46,.07,8.52-.33,1.68-1.02,3.87-1.7,5.35-.51,1.11-1.76,3.27-2.32,3.97q-.28,.36-.12-.42h0ZM20.73,5.52c-1.89-.96-4.82-1.99-6.43-2.27-.57-.1-1.53-.15-2.15-.12-1.33,.07-1.27,0,.86-1.01,1.78-.84,3.26-1.33,5.27-1.76,2.26-.48,6.52-.48,8.74-.01,2.41,.51,5.24,1.56,6.83,2.54l.47,.29-1.09-.05c-2.16-.11-5.31,.76-8.7,2.41-1.02,.5-1.91,.89-1.97,.88-.06-.01-.9-.42-1.85-.9Z"/>
    </g>
  </g>
</svg>