<?xml version="1.0" encoding="UTF-8"?>
<svg id="Layer_2" data-name="Layer 2" xmlns="http://www.w3.org/2000/svg" viewBox="0 0 35.82 48.12">
  <defs>
    <style>
      .cls-1 {
        fill: #beb8c8;
      }
    </style>
  </defs>
  <g id="Layer_1-2" data-name="Layer 1">
    <path class="cls-1" d="M17.85,.33c.1,.25-.07,.48-.21,.68-.98,1.39-1.76,2.95-2.06,4.63-.12,.34-.09,.6,0,.63,1.91-.17,4.06-.15,5.94,.25,3.42,.69,6.61,2.42,9.06,4.89,2.45,2.45,4.16,5.62,4.86,9.01,.77,3.67,.34,7.58-1.2,11-3.27,6.98-8.78,12.89-15.52,16.64-.22,.1-.53,.11-.68-.11-.18-.23-.1-.55,.07-.76,.91-1.27,1.54-2.73,1.89-4.25,.07-.32,.16-.63,.13-.96-.11-.14-.29-.1-.45-.1-3.27,.33-6.64-.26-9.6-1.7-3.17-1.53-5.85-4.02-7.63-7.05C.81,30.34-.06,27.09,0,23.85c.01-2.97,.82-5.92,2.25-8.53C5.58,8.93,10.8,3.55,17.11,.06c.26-.15,.66-.04,.75,.27Zm-.93,16.8c-1.95,.26-3.74,1.4-4.83,3.03-.74,1.12-1.18,2.45-1.18,3.79-.05,1.8,.66,3.61,1.91,4.91,1.09,1.17,2.6,1.93,4.18,2.14,1.61,.21,3.3-.16,4.67-1.05,1.39-.88,2.45-2.27,2.92-3.85,.89-2.74-.18-5.94-2.5-7.63-1.46-1.11-3.37-1.6-5.18-1.33h0Z"/>
  </g>
</svg>