<?xml version="1.0" encoding="UTF-8"?>
<svg id="Layer_2" data-name="Layer 2" xmlns="http://www.w3.org/2000/svg" viewBox="0 0 267 200">
  <defs>
    <style>
      .cls-1 {
        fill: #eae7f2;
      }

      .cls-2 {
        fill: #beb8c8;
      }
    </style>
  </defs>
  <g id="Layer_1-2" data-name="Layer 1">
    <g>
      <rect class="cls-2" width="267" height="200"/>
      <g>
        <path class="cls-1" d="M159.73,128.34c-.49,0-.97-.19-1.34-.56l-52.47-52.9c-.73-.74-.73-1.94,.01-2.67,.74-.73,1.94-.73,2.67,.01l52.47,52.9c.73,.74,.73,1.94-.01,2.67-.37,.37-.85,.55-1.33,.55Z"/>
        <ellipse class="cls-1" cx="152.06" cy="90.38" rx="1.99" ry="2.01"/>
        <path class="cls-1" d="M151.85,120.39h-39.53c-3.95,0-7.16-3.23-7.16-7.2v-24.36c0-3.97,3.21-7.2,7.16-7.2h2.87c.35,0,.69-.06,1.02-.18,.98-.36,2.06,.15,2.42,1.13,.36,.98-.15,2.06-1.13,2.42-.74,.27-1.52,.41-2.32,.41h-2.87c-1.86,0-3.38,1.53-3.38,3.42v24.36c0,1.89,1.52,3.42,3.38,3.42h39.53c1.04,0,1.89,.85,1.89,1.89s-.85,1.89-1.89,1.89Z"/>
        <path class="cls-1" d="M133.5,113.89c-7.6,0-13.79-6.23-13.79-13.89,0-3.71,1.43-7.19,4.03-9.81,.73-.74,1.93-.75,2.67-.01,.74,.73,.75,1.93,.01,2.67-1.89,1.91-2.94,4.45-2.94,7.15,0,5.57,4.49,10.11,10.01,10.11,2.67,0,5.18-1.05,7.07-2.96,.73-.74,1.93-.75,2.67-.01,.74,.73,.75,1.93,.01,2.67-2.61,2.63-6.07,4.07-9.76,4.07Z"/>
        <path class="cls-1" d="M158.95,118.19c-.38,0-.77-.12-1.1-.35-.85-.61-1.04-1.79-.43-2.64,.42-.59,.64-1.28,.64-2.01v-24.36c0-1.89-1.52-3.42-3.38-3.42h-2.87c-2.51,0-4.8-1.38-5.98-3.61l-.87-1.63c-.74-1.4-2.17-2.26-3.74-2.26h-15.47c-1.23,0-2.4,.54-3.21,1.49-.68,.79-1.87,.89-2.66,.21-.79-.68-.89-1.87-.21-2.66,1.52-1.79,3.74-2.81,6.08-2.81h15.47c2.97,0,5.68,1.64,7.07,4.27l.87,1.63c.52,.99,1.54,1.6,2.64,1.6h2.87c3.94,0,7.15,3.23,7.15,7.2v24.36c0,1.52-.47,2.98-1.35,4.21-.37,.51-.95,.79-1.54,.79Z"/>
        <path class="cls-1" d="M145.18,104.19c-.12,0-.24-.01-.36-.03-1.02-.2-1.7-1.19-1.5-2.21,.12-.64,.19-1.29,.19-1.95,0-5.57-4.49-10.11-10.01-10.11-.67,0-1.35,.07-2,.2-1.02,.21-2.02-.45-2.23-1.47-.21-1.02,.45-2.02,1.47-2.23,.9-.18,1.83-.28,2.76-.28,7.6,0,13.79,6.23,13.79,13.89,0,.89-.09,1.79-.25,2.66-.17,.9-.97,1.53-1.85,1.53Z"/>
      </g>
    </g>
  </g>
</svg>