<?xml version="1.0" encoding="UTF-8"?>
<svg id="Layer_2" data-name="Layer 2" xmlns="http://www.w3.org/2000/svg" viewBox="0 0 75 75">
  <defs>
    <style>
      .cls-1 {
        fill: #eae7f2;
      }

      .cls-2 {
        fill: #beb8c8;
      }
    </style>
  </defs>
  <g id="Layer_1-2" data-name="Layer 1">
    <g>
      <rect class="cls-2" width="75" height="75"/>
      <g>
        <path class="cls-1" d="M27.48,33.1h-2.26v-2.26c0-1.35-1.09-2.44-2.44-2.44s-2.44,1.09-2.44,2.44v2.26h-2.26c-1.35,0-2.44,1.09-2.44,2.44s1.09,2.44,2.44,2.44h2.26v2.26c0,1.35,1.09,2.44,2.44,2.44s2.44-1.09,2.44-2.44v-2.26h2.26c1.35,0,2.44-1.09,2.44-2.44s-1.09-2.44-2.44-2.44Z"/>
        <path class="cls-1" d="M47.31,34.15c-.84,0-1.53,.69-1.53,1.53s.69,1.53,1.53,1.53,1.53-.69,1.53-1.53-.69-1.53-1.53-1.53Z"/>
        <path class="cls-1" d="M52.79,39.62c-.84,0-1.53,.69-1.53,1.53s.69,1.53,1.53,1.53,1.53-.69,1.53-1.53-.69-1.53-1.53-1.53Z"/>
        <path class="cls-1" d="M52.79,31.73c.84,0,1.53-.69,1.53-1.53s-.69-1.53-1.53-1.53-1.53,.69-1.53,1.53,.69,1.53,1.53,1.53Z"/>
        <path class="cls-1" d="M57.95,16.92c-2.49-.97-6.33,.15-10.77,1.45-3.32,.97-6.76,1.98-9.68,2.08-3.26,0-7.04-1.14-10.37-2.15-4.13-1.25-7.69-2.32-10.04-1.41-7.52,2.42-15.49,29.02-12.88,38.04,.66,2.3,2,3.5,3.8,3.5,.38,0,.78-.05,1.2-.16,3.49-.7,7.19-2.4,11.11-4.19,5.57-2.55,11.34-5.19,17.18-5.33,6.06,.19,11.79,2.82,17.33,5.37,3.85,1.77,7.49,3.45,10.93,4.14,2.44,.63,4.24-.55,5.04-3.33,2.61-9.01-5.37-35.62-12.84-38.02Zm-30.47,22.56h-.75v.75c0,2.17-1.77,3.94-3.94,3.94s-3.94-1.77-3.94-3.94v-.75h-.75c-2.17,0-3.94-1.77-3.94-3.94s1.77-3.94,3.94-3.94h.75v-.75c0-2.17,1.77-3.94,3.94-3.94s3.94,1.77,3.94,3.94v.75h.75c2.17,0,3.94,1.77,3.94,3.94s-1.77,3.94-3.94,3.94Zm25.31-12.32c1.67,0,3.03,1.36,3.03,3.03s-1.36,3.03-3.03,3.03-3.03-1.36-3.03-3.03,1.36-3.03,3.03-3.03Zm-5.48,11.55c-1.67,0-3.03-1.36-3.03-3.03s1.36-3.03,3.03-3.03,3.03,1.36,3.03,3.03-1.36,3.03-3.03,3.03Zm5.48,5.48c-1.67,0-3.03-1.36-3.03-3.03s1.36-3.03,3.03-3.03,3.03,1.36,3.03,3.03c0,1.67-1.36,3.03-3.03,3.03Zm5.48-5.48c-1.67,0-3.03-1.36-3.03-3.03s1.36-3.03,3.03-3.03,3.03,1.36,3.03,3.03-1.36,3.03-3.03,3.03Z"/>
        <path class="cls-1" d="M58.26,34.15c-.84,0-1.53,.69-1.53,1.53s.69,1.53,1.53,1.53,1.53-.69,1.53-1.53-.69-1.53-1.53-1.53Z"/>
      </g>
    </g>
  </g>
</svg>