<?xml version="1.0" encoding="UTF-8"?>
<svg id="Layer_2" data-name="Layer 2" xmlns="http://www.w3.org/2000/svg" viewBox="0 0 45 45.11">
  <defs>
    <style>
      .cls-1 {
        fill: #beb8c8;
      }
    </style>
  </defs>
  <g id="Layer_1-2" data-name="Layer 1">
    <path class="cls-1" d="M22.44,0C10.75,0,1.13,8.9,0,20.3l11.47,5.87c1.16-.97,2.66-1.57,4.31-1.57h.05c.4-.62,.86-1.38,1.34-2.18,1-1.65,2.13-3.52,3.24-4.95,.25-4.58,4.05-8.24,8.69-8.24s8.71,3.91,8.71,8.71-3.66,8.45-8.24,8.69c-1.44,1.11-3.29,2.24-4.95,3.23-.8,.49-1.57,.95-2.18,1.35v.05c0,3.68-2.98,6.66-6.66,6.66s-6.66-2.98-6.66-6.66c0-.17,0-.34,.02-.51L.17,26.16c1.73,10.74,11.04,18.95,22.27,18.95,12.46,0,22.56-10.1,22.56-22.56S34.9,0,22.44,0Zm6.66,11.28c-3.67,0-6.66,2.99-6.66,6.66s2.99,6.66,6.66,6.66,6.66-2.99,6.66-6.66-2.99-6.66-6.66-6.66Zm0,2.05c2.55,0,4.61,2.06,4.61,4.61s-2.06,4.61-4.61,4.61-4.61-2.06-4.61-4.61,2.06-4.61,4.61-4.61Zm-13.33,13.33c-.81,0-1.58,.21-2.23,.58l3.4,1.74c1.26,.65,1.75,2.2,1.12,3.46-.46,.88-1.35,1.39-2.29,1.39-.4,0-.79-.09-1.17-.28l-3.41-1.75c.27,2.3,2.22,4.08,4.58,4.08,2.55,0,4.61-2.06,4.61-4.61s-2.06-4.61-4.61-4.61Z"/>
  </g>
</svg>