<?xml version="1.0" encoding="UTF-8"?>
<svg id="Layer_2" data-name="Layer 2" xmlns="http://www.w3.org/2000/svg" xmlns:xlink="http://www.w3.org/1999/xlink" viewBox="0 0 71.23 62.59">
  <defs>
    <style>
      .cls-1, .cls-2 {
        fill: #fff;
      }

      .cls-2, .cls-3 {
        fill-rule: evenodd;
      }

      .cls-3 {
        fill: #beb8c8;
      }

      .cls-4 {
        clip-path: url(#clippath);
      }

      .cls-5 {
        fill: none;
      }
    </style>
    <clipPath id="clippath">
      <rect class="cls-5" width="71.23" height="62.59"/>
    </clipPath>
  </defs>
  <g id="Layer_1-2" data-name="Layer 1">
    <g id="g10">
      <g id="g14">
        <g class="cls-4">
          <g id="g16">
            <g id="g22">
              <path id="path24" class="cls-3" d="M51.43,9.02H19.99c-2.55,0-3.49,.94-3.49,3.49v30.76c0,.29,.01,.56,.04,.8,.06,.56,.07,1.1,.59,1.71,.05,.06,.58,.45,.58,.45,.28,.14,.48,.24,.8,.37l15.48,6.49c.8,.37,1.14,.51,1.72,.5h0s0,0,0,0h0c.58,.01,.92-.13,1.72-.5l15.48-6.49c.32-.13,.51-.23,.8-.37,0,0,.53-.39,.58-.45,.52-.61,.53-1.15,.59-1.71,.03-.25,.04-.52,.04-.8V12.51c0-2.55-.94-3.49-3.49-3.49"/>
            </g>
            <g id="g26">
              <path id="path28" class="cls-1" d="M49.32,39.94v.07s-.01,.08-.01,.08v.07s-.04,.07-.04,.07v.06s-.04,.07-.04,.07l-.03,.06-.03,.06-.03,.06-.04,.06-.04,.06-.04,.06-.04,.06-.04,.05-.05,.05-.04,.04-.06,.05-.05,.04-.06,.04-.06,.03-.06,.04-.06,.04-.06,.03-.06,.04-.07,.03-.07,.03-.07,.02-.07,.02-.06,.02h-.07s-.06,.03-.06,.03h-.06s-.07,.03-.07,.03h-.07s-.06,.01-.06,.01h-.07s-.08,.01-.08,.01h-.07s-.07,0-.07,0h-.3s-.08,0-.08,0h-.07s-.07-.01-.07-.01h-.08s-.07-.02-.07-.02h-.07s-.07-.02-.07-.02h-.07s-.07-.03-.07-.03h-.07s-.07-.04-.07-.04h-.06s-.07-.04-.07-.04l-.07-.02-.06-.03-.07-.02-.06-.02-.07-.03-.06-.03-.06-.03-.06-.03-.06-.03-.06-.04-.06-.04-.06-.04-.06-.04-.06-.04-.06-.04-.06-.04-.06-.04-.06-.04-.05-.04-.06-.05,.04-.06,.05-.05,.04-.06,.05-.06,.04-.05,.04-.06,.05-.06,.04-.05,.05-.06,.04-.05,.05-.06,.04-.06,.04-.05,.05-.06,.04-.06,.05-.05,.04-.06,.06,.04,.06,.04,.06,.04,.06,.04,.06,.04,.06,.04,.06,.04,.06,.03,.06,.04,.06,.03,.06,.03,.06,.03,.06,.02,.06,.03,.07,.02,.07,.02,.06,.02h.07s.07,.03,.07,.03h.07s.08,.02,.08,.02h.07s.07,.01,.07,.01h.08s.07,0,.07,0h.16s.07-.02,.07-.02h.06s.06-.03,.06-.03l.06-.02,.05-.03,.06-.04,.04-.05,.03-.06,.02-.06v-.07s0-.01,0-.01v-.09s-.04-.07-.04-.07l-.04-.05-.05-.04-.06-.04-.06-.03-.06-.03-.07-.03-.08-.04h-.05s-.06-.03-.06-.03l-.06-.02h-.06s-.07-.04-.07-.04h-.07s-.08-.04-.08-.04h-.07s-.08-.04-.08-.04h-.07s-.07-.04-.07-.04h-.07s-.07-.04-.07-.04l-.06-.02h-.07s-.06-.04-.06-.04l-.06-.02-.06-.02-.08-.03-.07-.03-.07-.03-.07-.03-.06-.04-.07-.04-.06-.04-.06-.04-.06-.04-.06-.04-.05-.04-.05-.05-.05-.05-.04-.05-.04-.05-.04-.05-.04-.06-.04-.06-.03-.05-.02-.06-.02-.06-.02-.06v-.07s-.03-.06-.03-.06v-.07s-.01-.07-.01-.07v-.08s0-.08,0-.08h0v-.16s.01-.06,.01-.06v-.07s.02-.06,.02-.06v-.06s.04-.06,.04-.06v-.06s.04-.06,.04-.06l.03-.06,.03-.06,.04-.06,.04-.06,.04-.06,.04-.06,.05-.06,.05-.05,.05-.06,.06-.05,.05-.04,.06-.04,.06-.04,.06-.04,.06-.04,.06-.03,.06-.04,.06-.03,.07-.02,.07-.03,.06-.02h.06s.06-.03,.06-.03h.06s.07-.03,.07-.03h.06s.07-.02,.07-.02h.07s.07-.01,.07-.01h.07s.07,0,.07,0h.31s.08,.01,.08,.01h.15s.07,.02,.07,.02h.08s.07,.02,.07,.02h.06s.07,.03,.07,.03h.07s.06,.03,.06,.03l.07,.02,.06,.02h.06s.07,.04,.07,.04l.06,.02,.06,.03,.06,.03,.07,.03,.06,.04,.06,.03,.06,.04,.06,.04,.06,.04,.06,.04,.06,.04,.06,.04,.06,.04,.06,.04-.04,.06-.04,.06-.04,.06-.04,.06-.04,.06-.04,.06-.04,.06-.04,.06-.04,.06-.04,.06-.04,.06-.04,.06-.04,.06-.04,.06-.04,.06-.04,.06-.04,.06-.06-.04-.06-.04-.06-.04-.06-.04-.06-.03-.06-.04-.06-.03-.06-.03-.06-.03-.06-.03-.06-.02-.06-.03-.08-.02-.07-.02-.07-.02h-.07s-.07-.03-.07-.03h-.07s-.07-.02-.07-.02h-.07s-.06-.01-.06-.01h-.23s-.07,.03-.07,.03h-.06s-.06,.04-.06,.04l-.05,.03-.06,.06-.04,.06-.03,.06v.07s0,.01,0,.01v.09s.04,.08,.04,.08l.03,.04,.05,.05,.06,.04,.06,.04,.07,.03,.08,.03,.08,.03h.06s.06,.04,.06,.04h.06s.06,.04,.06,.04h.07s.08,.04,.08,.04l.08,.02,.08,.02h.08s.07,.04,.07,.04l.08,.02h.07s.07,.04,.07,.04l.07,.02,.06,.02,.07,.02,.06,.02,.06,.02,.08,.03,.07,.04,.07,.03,.07,.04,.06,.04,.06,.04,.06,.04,.06,.04,.06,.04,.06,.05,.06,.05,.05,.06,.05,.05,.04,.06,.04,.06,.04,.06,.04,.06,.03,.06,.02,.06,.02,.06v.06s.03,.07,.03,.07v.07s.02,.07,.02,.07v.08s0,.08,0,.08h0v.17Zm-4.96,1.42h-4.05v-5.16h4.08v1.17h-2.73v.84h2.46v1.1h-2.46v.88h2.77v1.17h-.07Zm-5.16,0h-1.29v-3.05l-.04,.06-.04,.06-.04,.06-.04,.06-.04,.06-.04,.06-.03,.06-.04,.06-.04,.06-.04,.06-.04,.06-.04,.06-.04,.06-.04,.06-.04,.06-.04,.06-.04,.06-.04,.06-.03,.06-.04,.06-.04,.06-.04,.06-.04,.06-.04,.06-.04,.06-.04,.06-.04,.06-.04,.06-.04,.06-.04,.06-.04,.06-.04,.06-.04,.06-.04,.06-.04,.06h-.03l-.04-.06-.04-.06-.04-.06-.04-.06-.04-.06-.04-.06-.04-.06-.04-.06-.04-.06-.04-.06-.04-.06-.03-.06-.04-.06-.04-.06-.04-.06-.04-.06-.04-.06-.04-.06-.04-.06-.04-.06-.04-.06-.04-.06-.04-.06-.04-.06-.04-.06-.04-.06-.04-.06-.04-.06-.04-.06-.04-.06-.04-.06-.04-.06-.04-.06-.04-.06v3.04h-1.34v-5.16h1.45l.04,.06,.04,.06,.04,.06,.04,.06,.04,.06,.04,.06,.04,.06,.04,.06,.04,.06,.04,.06,.04,.06,.04,.06,.04,.06,.04,.06,.04,.06,.04,.06,.04,.06,.04,.06,.03,.06,.04,.06,.04,.06,.04,.06,.04,.06,.03,.06,.04,.06,.04,.06,.04,.06,.04,.06,.04,.06,.04,.06,.04,.06,.04,.06,.04,.06,.04,.06,.04-.06,.04-.06,.04-.06,.04-.06,.04-.06,.04-.06,.04-.06,.04-.06,.04-.06,.03-.06,.04-.06,.04-.06,.04-.06,.04-.06,.04-.06,.04-.06,.04-.06,.03-.06,.04-.06,.04-.06,.04-.06,.04-.06,.04-.06,.04-.06,.04-.06,.04-.06,.04-.06,.04-.06,.04-.06,.03-.06,.04-.06,.04-.06,.04-.06,.04-.06h1.45v5.16h-.07Zm-8.2-2.13l-.02-.06-.03-.07-.03-.06-.02-.06-.03-.06-.03-.07-.02-.06-.03-.06-.03-.06-.02-.06-.03-.07-.02-.06-.03-.06-.03-.06-.02-.06-.03-.07-.03-.06-.02-.06-.03-.06-.03-.07-.02-.06-.03-.06-.03,.06-.02,.06-.03,.07-.03,.06-.02,.06-.03,.06-.03,.07-.03,.06-.02,.06-.03,.06-.03,.06-.02,.07-.03,.06-.03,.06-.02,.06-.03,.06-.03,.07-.03,.06-.02,.06-.03,.06-.03,.07-.02,.06-.03,.06h1.19l-.03-.06Zm2.22,2.13h-1.38l-.03-.06-.02-.06-.03-.06-.03-.07-.02-.06-.03-.06-.03-.06-.02-.06-.03-.06-.03-.06-.02-.06-.03-.07-.03-.06-.02-.06-.03-.06h-2.03l-.03,.06-.02,.06-.03,.06-.03,.07-.02,.06-.03,.06-.03,.06-.02,.06-.03,.06-.03,.06-.02,.06-.03,.07-.03,.06-.02,.06-.03,.06h-1.43l.03-.06,.03-.06,.03-.06,.03-.07,.02-.06,.03-.06,.03-.06,.03-.06,.03-.06,.03-.07,.03-.06,.03-.06,.02-.06,.03-.06,.03-.06,.03-.07,.03-.06,.03-.06,.03-.06,.03-.06,.02-.06,.03-.07,.03-.06,.03-.06,.03-.06,.03-.06,.03-.06,.03-.07,.02-.06,.03-.06,.03-.06,.03-.06,.03-.06,.03-.07,.03-.06,.03-.06,.02-.06,.03-.06,.03-.06,.03-.07,.03-.06,.03-.06,.03-.06,.03-.06,.02-.06,.03-.06,.03-.07,.03-.06,.03-.06,.03-.06,.03-.06,.03-.06,.02-.07,.03-.06,.03-.06,.03-.06,.03-.06,.03-.06,.03-.07,.03-.06,.02-.06,.03-.06,.03-.06,.03-.06,.03-.07,.03-.06,.03-.06,.03-.06,.02-.06,.03-.06,.03-.07,.03-.06,.03-.06,.03-.06,.03-.06,.03-.06,.02-.07,.03-.06,.03-.06,.03-.06h1.31l.03,.06,.03,.06,.03,.06,.03,.07,.02,.06,.03,.06,.03,.06,.03,.06,.03,.06,.03,.07,.03,.06,.03,.06,.02,.06,.03,.06,.03,.06,.03,.07,.03,.06,.03,.06,.03,.06,.03,.06,.02,.06,.03,.07,.03,.06,.03,.06,.03,.06,.03,.06,.03,.06,.03,.07,.02,.06,.03,.06,.03,.06,.03,.06,.03,.06,.03,.07,.03,.06,.03,.06,.02,.06,.03,.06,.03,.06,.03,.06,.03,.07,.03,.06,.03,.06,.03,.06,.02,.06,.03,.06,.03,.07,.03,.06,.03,.06,.03,.06,.03,.06,.03,.06,.02,.07,.03,.06,.03,.06,.03,.06,.03,.06,.03,.06,.03,.07,.03,.06,.02,.06,.03,.06,.03,.06,.03,.06,.03,.07,.03,.06,.03,.06,.03,.06,.02,.06,.03,.06,.03,.07,.03,.06,.03,.06,.03,.06,.03,.06,.03,.06,.02,.07,.03,.06,.03,.06,.03,.06h-.07Zm-6.19-.66l-.06,.04-.05,.04-.06,.04-.06,.04-.06,.04-.06,.04-.06,.04-.06,.04-.06,.04-.06,.04-.06,.03-.06,.04-.07,.03-.06,.03-.07,.03-.06,.03-.06,.02-.06,.02-.06,.02-.07,.02-.06,.02h-.07s-.06,.03-.06,.03h-.07s-.07,.03-.07,.03h-.07s-.08,.01-.08,.01h-.07s-.08,.01-.08,.01h-.07s-.08,.01-.08,.01h-.37s-.08-.01-.08-.01h-.07s-.07-.01-.07-.01h-.07s-.07-.02-.07-.02h-.07s-.06-.03-.06-.03h-.07s-.06-.04-.06-.04h-.07s-.06-.04-.06-.04l-.06-.03-.06-.02-.07-.03-.06-.03-.06-.03-.06-.03-.06-.04-.06-.04-.06-.04-.06-.04-.06-.04-.06-.04-.06-.04-.06-.04-.05-.04-.05-.04-.05-.05-.05-.04-.05-.05-.05-.05-.04-.05-.04-.06-.04-.05-.04-.06-.04-.06-.04-.06-.04-.06-.04-.06-.04-.06-.03-.06-.03-.06-.03-.06-.03-.06-.02-.06-.03-.06v-.06s-.04-.06-.04-.06v-.07s-.04-.06-.04-.06v-.07s-.02-.06-.02-.06v-.07s-.02-.06-.02-.06v-.07s-.01-.07-.01-.07v-.07s0-.08,0-.08v-.07h0v-.16s0-.07,0-.07v-.07s.01-.08,.01-.08v-.07s.02-.07,.02-.07v-.06s.04-.07,.04-.07v-.07s.04-.06,.04-.06l.02-.07,.02-.06,.03-.07,.03-.06,.03-.06,.03-.06,.03-.06,.04-.06,.04-.06,.04-.06,.04-.06,.04-.06,.04-.06,.04-.06,.04-.06,.04-.05,.05-.05,.04-.05,.05-.05,.05-.05,.05-.04,.06-.05,.05-.04,.06-.04,.06-.04,.06-.04,.06-.04,.06-.04,.06-.04,.06-.04,.06-.04,.06-.03,.06-.03,.07-.04,.06-.02,.07-.02,.06-.03h.06s.06-.04,.06-.04h.07s.06-.04,.06-.04h.07s.07-.02,.07-.02h.07s.07-.02,.07-.02h.07s.07-.01,.07-.01h.07s.08,0,.08,0h.3s.08,.01,.08,.01h.14s.08,.02,.08,.02h.06s.07,.02,.07,.02h.07s.06,.03,.06,.03h.06s.06,.03,.06,.03l.06,.02h.06s.06,.04,.06,.04l.06,.02,.06,.03,.06,.03,.06,.03,.06,.04,.06,.03,.06,.04,.06,.04,.06,.04,.06,.04,.06,.04,.06,.04,.06,.04,.06,.04,.06,.05,.06,.04-.04,.06-.05,.05-.04,.06-.05,.06-.04,.06-.04,.05-.05,.06-.04,.06-.04,.05-.05,.06-.04,.06-.05,.06-.04,.05-.04,.06-.05,.06-.04,.06-.05,.05-.04,.06-.06-.04-.06-.05-.06-.04-.06-.04-.06-.04-.06-.04-.06-.04-.06-.04-.06-.03-.06-.03-.06-.02-.06-.02-.06-.02h-.06s-.07-.03-.07-.03h-.07s-.07-.02-.07-.02h-.08s-.08-.01-.08-.01h-.22s-.06,.01-.06,.01h-.07s-.06,.03-.06,.03l-.06,.02-.06,.02-.06,.03-.06,.03-.06,.04-.06,.04-.06,.04-.05,.04-.05,.04-.05,.04-.04,.05-.05,.05-.04,.06-.04,.05-.04,.06-.03,.06-.04,.06-.03,.06-.02,.06-.03,.06-.02,.07v.07s-.03,.06-.03,.06v.08s-.02,.07-.02,.07v.07s0,.08,0,.08h0v.16s.01,.06,.01,.06v.07s.02,.06,.02,.06v.06s.03,.06,.03,.06l.02,.06,.02,.06,.03,.07,.03,.06,.04,.06,.04,.06,.04,.06,.04,.06,.04,.05,.05,.05,.04,.05,.05,.04,.06,.04,.06,.04,.06,.04,.06,.04,.06,.03,.06,.03,.06,.03,.07,.02,.07,.02h.07s.07,.03,.07,.03h.07s.08,.01,.08,.01h.24s.08-.01,.08-.01h.07s.07-.02,.07-.02h.07s.07-.04,.07-.04h.06s.06-.04,.06-.04l.06-.03,.06-.03,.05-.03,.06-.04v-.65h-1.03v-1.04h2.33v2.31l-.05,.04Z"/>
            </g>
            <g id="g30">
              <path id="path32" class="cls-1" d="M24.77,24.51h3.06v-2.37h-3.06v-4.83h3.18v-2.37h-5.78v17.09h5.83v-2.37h-3.23v-5.15Z"/>
            </g>
            <g id="g34">
              <path id="path36" class="cls-1" d="M46.7,25.03v3.86c0,.68-.32,1-.97,1h-.49c-.68,0-1-.32-1-1v-10.79c0-.68,.32-1,1-1h.44c.66,0,.97,.32,.97,1v3.35h2.55v-3.49c0-2.12-1.02-3.15-3.13-3.15h-1.26c-2.11,0-3.16,1.05-3.16,3.17v11.04c0,2.12,1.05,3.17,3.16,3.17h1.29c2.11,0,3.16-1.05,3.16-3.17v-3.98h-2.55Z"/>
            </g>
            <path id="path38" class="cls-1" d="M37.67,32.03h2.6V14.94h-2.6v17.09Z"/>
            <g id="g40">
              <path id="path42" class="cls-1" d="M33.9,22.54c0,.68-.32,1-.97,1h-1.07v-6.3h1.07c.66,0,.97,.32,.97,1v4.3Zm-.56-7.59h-4.08v17.09h2.6v-6.2h1.48c2.11,0,3.16-1.05,3.16-3.17v-4.54c0-2.12-1.04-3.17-3.16-3.17"/>
            </g>
            <g id="g44">
              <path id="path46" class="cls-2" d="M28.3,47.49h14.88l-7.6,2.51-7.29-2.51Z"/>
            </g>
          </g>
        </g>
      </g>
    </g>
  </g>
</svg>